<svg height='100px' width='100px'  fill="#000000" xmlns="http://www.w3.org/2000/svg" xmlns:xlink="http://www.w3.org/1999/xlink" version="1.1" x="0px" y="0px" viewBox="0 0 100 100" enable-background="new 0 0 100 100" xml:space="preserve"><path d="M62.298,55.739c-0.025-6.629-4.373-12.917-10.34-14.953c-4.335-1.477-8.817-0.746-13.699,2.241  c-0.659,0.403-0.867,1.265-0.463,1.925c0.403,0.66,1.266,0.866,1.925,0.463c4.185-2.558,7.786-3.187,11.332-1.978  c4.794,1.635,8.424,6.928,8.444,12.312c0.013,3.433-1.737,6.669-4.352,8.05c-2.439,1.286-5.121,1.298-6.943,1.085  c-3.547-0.419-6.715-2.142-8.472-4.609c-1.399-1.965-1.905-4.408-1.35-6.536c0.444-1.71,1.616-3.204,3.133-3.995  c1.042-0.542,2.17-0.766,2.808-0.553c0.27,0.089,0.444,0.249,0.583,0.533c0.337,0.697,1.176,0.987,1.871,0.649  c0.696-0.337,0.986-1.175,0.649-1.871c-0.467-0.963-1.235-1.645-2.224-1.971c-1.978-0.655-4.143,0.292-4.981,0.729  c-2.208,1.151-3.909,3.309-4.55,5.774c-0.759,2.92-0.094,6.234,1.781,8.865c2.242,3.145,6.041,5.247,10.424,5.765  c0.703,0.084,1.395,0.125,2.073,0.125c2.39,0,4.61-0.513,6.506-1.514C60.021,64.393,62.315,60.258,62.298,55.739z"></path><path d="M50.917,33.958c0.058,0.006,0.116,0.01,0.172,0.01c0.697,0,1.301-0.521,1.389-1.23c0.94-7.666,2.093-15.417,3.429-23.038  c0.133-0.762-0.376-1.488-1.138-1.621c-0.762-0.135-1.487,0.377-1.621,1.138c-1.343,7.668-2.504,15.467-3.451,23.18  C49.603,33.165,50.149,33.863,50.917,33.958z"></path><path d="M63.865,36.136c0.253,0.191,0.551,0.284,0.846,0.284c0.423,0,0.841-0.191,1.117-0.553  c4.214-5.553,9.123-10.469,14.593-14.61c0.617-0.468,0.738-1.346,0.272-1.962c-0.47-0.617-1.347-0.738-1.962-0.272  c-5.673,4.296-10.765,9.393-15.134,15.15C63.13,34.79,63.25,35.668,63.865,36.136z"></path><path d="M68.812,42.366c0.21,0.563,0.744,0.912,1.312,0.912c0.162,0,0.327-0.028,0.489-0.088c7.278-2.71,14.835-4.826,22.462-6.288  c0.759-0.146,1.257-0.88,1.112-1.639c-0.146-0.76-0.887-1.252-1.639-1.112c-7.78,1.492-15.489,3.65-22.913,6.416  C68.911,40.835,68.542,41.641,68.812,42.366z"></path><path d="M92.552,52.249c-7.485-0.667-15.099-1.051-22.63-1.141c-0.005,0-0.011,0-0.016,0c-0.766,0-1.391,0.616-1.4,1.384  c-0.009,0.773,0.61,1.408,1.384,1.417c7.459,0.089,15.001,0.47,22.415,1.131c0.042,0.004,0.084,0.005,0.126,0.005  c0.717,0,1.328-0.548,1.393-1.276C93.891,52.997,93.322,52.317,92.552,52.249z"></path><path d="M82.181,70.769c-5.804-2.513-11.358-5.656-16.507-9.341c-0.628-0.449-1.502-0.306-1.954,0.324  c-0.45,0.629-0.305,1.503,0.324,1.954c5.311,3.801,11.038,7.042,17.025,9.635c0.181,0.078,0.37,0.115,0.555,0.115  c0.542,0,1.058-0.315,1.286-0.844C83.217,71.901,82.891,71.077,82.181,70.769z"></path><path d="M57.042,71.501c-0.305-0.709-1.128-1.038-1.84-0.733c-0.71,0.305-1.038,1.13-0.733,1.84  c2.558,5.949,5.525,11.802,8.817,17.396c0.261,0.443,0.728,0.69,1.208,0.69c0.242,0,0.486-0.062,0.709-0.193  c0.666-0.392,0.889-1.251,0.497-1.917C62.468,83.089,59.555,77.342,57.042,71.501z"></path><path d="M46.917,71.982c-0.702-0.328-1.535-0.024-1.861,0.677c-2.697,5.788-5.594,11.582-8.611,17.221  c-0.366,0.682-0.108,1.531,0.573,1.895c0.211,0.113,0.437,0.166,0.66,0.166c0.5,0,0.984-0.268,1.235-0.739  c3.041-5.685,5.962-11.526,8.68-17.36C47.922,73.142,47.618,72.309,46.917,71.982z"></path><path d="M30.606,67.293c-5.715,4.78-11.143,10-16.132,15.516c-0.519,0.573-0.475,1.459,0.099,1.977  c0.268,0.243,0.604,0.362,0.939,0.362c0.381,0,0.762-0.155,1.038-0.461c4.902-5.419,10.236-10.549,15.851-15.246  c0.594-0.496,0.672-1.379,0.176-1.972C32.082,66.876,31.199,66.796,30.606,67.293z"></path><path d="M27.991,52.995c-0.241-0.734-1.029-1.136-1.767-0.895c-6.54,2.142-13.114,4.479-19.539,6.946  c-0.722,0.277-1.082,1.088-0.805,1.81c0.214,0.556,0.745,0.898,1.307,0.898c0.167,0,0.337-0.03,0.502-0.093  c6.381-2.451,12.91-4.772,19.405-6.899C27.831,54.521,28.232,53.73,27.991,52.995z"></path><path d="M9.671,39.858c5.771,1.283,11.58,2.713,17.267,4.252c0.122,0.033,0.245,0.048,0.367,0.048c0.617,0,1.182-0.41,1.351-1.035  c0.201-0.747-0.24-1.515-0.986-1.718c-5.726-1.55-11.578-2.99-17.391-4.281c-0.759-0.17-1.502,0.308-1.67,1.063  C8.44,38.942,8.916,39.69,9.671,39.858z"></path><path d="M36.488,32.599c0.239,0,0.48-0.061,0.702-0.19c0.669-0.387,0.896-1.244,0.508-1.914L27.656,13.199  c-0.388-0.669-1.248-0.895-1.914-0.508c-0.669,0.388-0.896,1.245-0.508,1.914l10.042,17.297  C35.536,32.349,36.006,32.599,36.488,32.599z"></path></svg>