<svg height='50px' width='50px'  fill="#000000" xmlns="http://www.w3.org/2000/svg" xmlns:xlink="http://www.w3.org/1999/xlink" version="1.1" x="0px" y="0px" viewBox="0 0 100 100" enable-background="new 0 0 100 100" xml:space="preserve"><path fill-rule="evenodd" clip-rule="evenodd" d="M90.104,7.911c0.5,0.133,0.884,0.383,1.15,0.75c-0.3,0.666-0.75,0.916-1.35,0.75  c-2.9-0.633-6.45-1.05-10.65-1.25c-2.333-0.066-5.866-0.184-10.6-0.35c-6.801-0.434-13.601-0.75-20.4-0.95  c-5.9-0.167-15.733,0-29.5,0.5c-0.967,0.033-2.117,0.216-3.45,0.55c-0.733,0.2-1.866,0.55-3.4,1.05  c-1.466,0.467-2.566,1.333-3.3,2.601c-0.467,0.833-0.9,2.149-1.3,3.949c-0.267,1.066-0.483,2.634-0.65,4.7  c-0.466,7.034-0.3,17.184,0.5,30.45c0.1,1.267,0.184,3.566,0.25,6.9c0.1,2.934,0.233,5.232,0.4,6.899  c0.434,5.067,0.617,12.067,0.55,21v1.15c0.267,3.434,2.1,5.233,5.5,5.399c7.433,0.4,12.35,0.65,14.75,0.75  c5.534,0.2,10.45,0.167,14.75-0.1c3.767-0.2,8.25-0.217,13.45-0.05c5.967,0.3,10.45,0.483,13.45,0.55c1.434,0.1,3.384,0,5.85-0.3  c2.834-0.334,4.817-0.5,5.95-0.5c0.767-0.033,1.834-0.15,3.2-0.351c1.566-0.267,2.634-0.416,3.2-0.449c1.434-0.167,2.383-0.5,2.85-1  c0.434-0.467,0.634-1.384,0.601-2.75c-0.101-12.434,0.25-24.351,1.05-35.75c0.7-8.601,0.95-15.584,0.75-20.95  c-0.134-3.733-0.483-9.351-1.05-16.851c-0.034-0.266-0.367-1.383-1-3.35c-0.101-0.467,0.033-0.783,0.399-0.95  c0.5-0.2,0.816-0.083,0.95,0.351c0.667,1.333,1.083,2.967,1.25,4.899c0.8,9.067,0.967,18.9,0.5,29.5c-0.233,5.5-0.5,9.634-0.8,12.4  c-0.167,1.667-0.25,3.683-0.25,6.05c0,1.367,0,3.383,0,6.05c0,0.101-0.117,2.467-0.351,7.101c-0.133,1.699-0.133,3.684,0,5.949  c0.067,1.268,0.2,3.217,0.4,5.851c0.066,1.3-0.066,2.184-0.4,2.649c-0.267,0.4-1.033,0.917-2.3,1.551c-1,0.5-2.233,0.833-3.7,1  c-0.866,0.066-2.149,0.149-3.85,0.25c-7.667,0.933-14.634,1.133-20.9,0.6c-5.966-0.566-11.1-0.65-15.399-0.25  c-2.733,0.233-6.867,0.333-12.4,0.3c-3,0.101-6.733,0.017-11.2-0.25c-7.433-0.434-11.183-0.649-11.25-0.649  c-1.567-0.067-2.867-0.601-3.9-1.601c-1.034-1.033-1.567-2.316-1.6-3.85c-0.133-3.634-0.067-7.267,0.2-10.9  c0.067-1.466,0.017-3.216-0.15-5.25c-0.233-2.366-0.4-4.149-0.5-5.35c-0.167-0.767-0.25-1.351-0.25-1.75  c0.133-2.934,0.067-6.733-0.2-11.4c-0.333-5.966-0.534-9.75-0.6-11.35c-0.3-7.101-0.417-12.417-0.35-15.95  c0.233-5.934,0.783-10.617,1.65-14.05c0.5-2.167,2.05-3.684,4.65-4.55c3.1-1,7.467-1.533,13.101-1.601  c9.767-0.2,18.55-0.216,26.35-0.05c2.967,0.066,6.65,0.217,11.05,0.45c7.334,0.433,11.033,0.649,11.101,0.649  c7.767,0.268,13.083,0.617,15.949,1.051C89.422,7.845,89.838,7.878,90.104,7.911z M80.604,14.661c-2.733-0.2-6.333-0.3-10.8-0.3  c-5.533-0.101-9.116-0.167-10.75-0.2c-2.3-0.033-5.7-0.133-10.2-0.3c-3.966-0.101-7.366-0.101-10.199,0  c-1.9,0.066-5.301,0.149-10.2,0.25c-4.3,0.066-7.7,0.183-10.2,0.35c-0.434,0.034-1.1,0.134-2,0.3c-0.633,0.066-1.083,0.301-1.35,0.7  c-0.233,0.333-0.383,0.851-0.45,1.55c-0.4,4.667-0.634,10.066-0.7,16.2c-0.033,1.833,0.017,7.267,0.15,16.3  c0,1.4,0.167,5.434,0.5,12.101c0,0.866,0.184,1.483,0.55,1.85c0.566-0.233,1.183-0.634,1.85-1.2c0.7-0.766,1.233-1.333,1.6-1.699  c0.833-0.734,2.217-2.134,4.15-4.2c1.667-1.833,3.066-3.2,4.2-4.101c1.667-1.5,3.866-2.8,6.6-3.899c0.634-0.3,1.467-0.217,2.5,0.25  c1.367,0.6,2.817,1.917,4.351,3.95l3.85,5.55c0.867,1.167,1.684,1.783,2.45,1.85c0.733,0.067,1.667-0.316,2.8-1.149  c0.8-0.634,1.5-1.467,2.101-2.5c2.1-3.234,3.666-5.684,4.699-7.351c1.867-2.899,3.367-5.384,4.5-7.45  c0.434-0.732,1.884-2.85,4.351-6.35c0.566-0.9,1.467-1.5,2.7-1.8c-0.134,0.2-0.733,1.149-1.801,2.85  c-0.699,1.134-1.316,2.034-1.85,2.7c-1.1,1.367-2.35,3.3-3.75,5.8c-1.7,2.967-2.9,4.967-3.6,6c-1.167,1.634-2.801,4.2-4.9,7.7  c-0.533,0.834-1.3,1.6-2.3,2.3c-1.2,0.866-2.3,1.233-3.3,1.101c-0.934-0.134-1.867-0.783-2.801-1.95  c-1.733-2.2-3.05-4.067-3.949-5.601l-0.801-1.199c-1.3-1.5-2.483-2.351-3.55-2.551c-1.066-0.199-2.483,0.134-4.25,1  c-1.733,0.867-4.05,2.684-6.95,5.45c-0.166,0.101-0.566,0.517-1.2,1.25c-0.367,0.467-1.05,1.083-2.05,1.851  c-0.767,0.766-1.067,1.416-0.9,1.949c0.233,1.066,0.583,2.667,1.05,4.801c0.5,1.899,1.283,3.383,2.35,4.449  c2.101,2.066,5.117,3.834,9.051,5.301c2.1,0.833,4.533,1.449,7.3,1.85c1.533,0.2,4.05,0.434,7.55,0.7  c8.1,0.566,16.533,0.116,25.3-1.351c4.134-0.699,8.334-2.333,12.601-4.899c0.733-0.467,1.1-1.101,1.1-1.9  c0.066-1.399,0.066-2.433,0-3.1c-0.134-1.167-0.65-2.101-1.55-2.8c-0.334-0.234-0.617-0.617-0.851-1.15  c-0.267-0.633-0.466-1.1-0.6-1.4c-2.2-5.366-4.2-9.75-6-13.149c-0.5-0.967-1.167-2.45-2-4.45c-0.767-2.033-1.4-3.517-1.9-4.45  c-0.899-1.667-1.433-2.6-1.6-2.8c-0.667-0.967-1.434-1.684-2.3-2.15c-0.667-0.366-0.9-0.75-0.7-1.149  c0.366-0.634,0.884-0.7,1.55-0.2c1.601,1,2.783,2.4,3.55,4.2c1.434,3.466,3.25,7.566,5.45,12.3c1.3,2.666,3.25,6.7,5.851,12.1  c0.033,0.101,0.216,0.25,0.55,0.45c0.467-0.733,0.7-1.616,0.7-2.649c0.066-0.4,0.017-1.283-0.15-2.65  c-0.267-1.834-0.267-4.584,0-8.25c0.066-3.3,0.15-5.767,0.25-7.4c0.2-5.033,0.333-8.816,0.4-11.35c0.1-4.367,0.066-8.166-0.101-11.4  c-0.166-2.633-0.85-4.666-2.05-6.1c1.267,0.2,2.116,0.533,2.55,1c0.4,0.4,0.65,1.166,0.75,2.3c0.101,1.434,0.134,3.583,0.101,6.45  c0.199,5.733,0,14.316-0.601,25.75c-0.066,1.9-0.033,4.717,0.101,8.45c0.133,3.733,0.183,6.533,0.149,8.399  c0,0.7-0.066,3.316-0.2,7.851c-0.1,3.167-0.116,5.75-0.05,7.75c0,0.5-0.233,1.116-0.7,1.85c-0.5,0.8-0.75,1.417-0.75,1.851  c0,0.133-0.533,0.266-1.6,0.399c-5.233,0.866-11.733,1.217-19.5,1.05c-0.733,0-2.116-0.066-4.15-0.199  c-1.733-0.066-3.083-0.084-4.05-0.051c-1.233,0.033-3.967,0.018-8.2-0.05c-3.399-0.1-6.116,0-8.149,0.3c-1.834,0.2-4,0.2-6.5,0  c-2.434-0.199-6.367,0-11.8,0.601c-1.566,0.167-2.733,0.25-3.5,0.25c-1.633,0-2.85-0.351-3.65-1.05c-0.767-0.7-1.233-1.851-1.4-3.45  c-0.233-1.934-0.35-4.284-0.35-7.05c0-9.033-0.066-14.851-0.2-17.45c-0.167-2.634-0.25-5.784-0.25-9.45  c0.034-4.2,0.05-7.367,0.05-9.5c-0.167-6.434-0.133-11.25,0.1-14.45c0.2-2.433,0.366-4.25,0.5-5.45c0.167-2.133,0.167-3.967,0-5.5  c-0.067-0.766,0.2-1.316,0.8-1.649c0.267,0.533,0.617,0.85,1.05,0.95c0.3,0.066,0.833,0.016,1.6-0.15  c2.033-0.367,4.85-0.55,8.45-0.55c9.567,0.1,18.15,0.083,25.75-0.05c0.667,0,1.733,0.083,3.2,0.25c1.467,0.199,2.566,0.283,3.3,0.25  c3-0.101,6.834-0.084,11.5,0.05c6.567,0.167,10.4,0.25,11.5,0.25c1.233,0,2.233,0.216,3,0.649  C82.722,14.511,81.805,14.728,80.604,14.661z M64.955,80.211c0.333-0.1,0.7,0.017,1.1,0.351c-1.434,1.133-2.85,2.566-4.25,4.3  c1.4,0.233,2.283,0.3,2.65,0.2c0.333-0.101,0.883-0.584,1.649-1.45c1.134-0.9,1.934-1.616,2.4-2.15  c0.533-0.466,0.934-0.816,1.2-1.05c0.434-0.467,0.684-1,0.75-1.6c-2.434,0.566-5.684,0.967-9.75,1.199  c-3.634,0.301-7.584,0.351-11.851,0.15c-0.767-0.066-1.25-0.1-1.449-0.1c-0.534,0.1-0.967,0.333-1.301,0.699  c-1.8,1.9-2.966,3.283-3.5,4.15c1.733,0.166,2.95,0.166,3.65,0c1.167-0.267,2.1-0.967,2.8-2.1c0.634-1.033,1.45-1.518,2.45-1.45  c-0.134,0.433-0.616,0.966-1.45,1.6c-0.666,0.634-1,1.233-1,1.8c1.7,0.434,3.084,0.5,4.15,0.2c1.267-0.399,2.233-1.35,2.899-2.85  c0.467-0.767,0.967-0.817,1.5-0.15l-1.899,2.7c2.666,1.133,4.783,0.6,6.35-1.6c0.4-0.601,1.134-1.384,2.2-2.351  C64.555,80.411,64.788,80.245,64.955,80.211z M66.555,85.411h7.9c1.033-0.1,1.717-0.434,2.05-1c0.634-1.233,1.65-2.483,3.05-3.75  c1.667-1.367,2.884-2.416,3.65-3.15c1.233-1.166,1.983-2.266,2.25-3.3c-0.834,0.366-2.033,0.866-3.601,1.5  c-1.267,0.601-2.316,1.317-3.149,2.15c-2.334,2.333-3.884,3.966-4.65,4.899c-0.366,0.434-0.6,0.717-0.7,0.851  c-0.333,0.233-0.733,0.366-1.199,0.399c0.366-0.833,1.133-1.866,2.3-3.1c1.2-1.334,2-2.383,2.399-3.15  c-2.066,0.234-4.066,1.15-6,2.75c-1.066,0.867-2.6,2.234-4.6,4.101L66.555,85.411z M81.005,80.511c-1.6,1.4-2.8,2.851-3.6,4.351  c1.699,0.033,2.583,0.05,2.649,0.05c0.8-0.166,1.334-0.733,1.601-1.7c0.267-0.733,0.866-1.216,1.8-1.45  c1.066-0.333,1.733-0.899,2-1.699c0.2-0.634,0.149-1.634-0.15-3C84.338,77.895,82.905,79.044,81.005,80.511z M85.104,81.861  c-1.066,0.466-1.983,1.216-2.75,2.25c1.434-0.067,2.284-0.2,2.551-0.4C85.104,83.544,85.172,82.928,85.104,81.861z M40.755,36.011  c-1.167-0.5-2.017-1.516-2.55-3.05c-0.533-1.466-0.55-2.8-0.05-4c0.666-1.8,1.566-3.033,2.699-3.7c1.334-0.732,3.034-1.1,5.101-1.1  c1.1-0.033,2.166,0.55,3.2,1.75c0.966,1.1,1.449,2.267,1.449,3.5c-0.399,2.967-1.466,5.084-3.199,6.35  C45.604,37.095,43.389,37.178,40.755,36.011z M44.055,34.861c1.467,0,2.684-0.567,3.65-1.7c1.033-1.066,1.533-2.367,1.5-3.9  c-0.033-0.934-0.667-1.899-1.9-2.899c-1.233-0.934-2.383-1.384-3.45-1.351c-0.767,0.101-1.699,0.816-2.8,2.15  c-1.066,1.4-1.6,2.533-1.6,3.4c-0.033,1.3,0.383,2.333,1.25,3.1C41.571,34.461,42.688,34.861,44.055,34.861z M18.455,62.611  c-1.1,0.733-2.134,1.683-3.1,2.85c-0.6,0.7-0.9,1.267-0.9,1.7v6.2c0.767-0.634,1.466-1.567,2.1-2.8c0.767-1.4,1.3-2.268,1.6-2.601  c0.7-0.767,1.033-1.616,1-2.55C19.088,64.878,18.855,63.944,18.455,62.611z M16.305,72.761c-1.033,1.101-1.633,2.334-1.8,3.7  c-0.066,1.101,0.167,2.517,0.7,4.25c0.7-1.233,1.583-2.566,2.65-4c1.233-1.634,2.15-2.833,2.75-3.6c0.433-0.534,0.9-0.733,1.4-0.601  c-0.167-0.633-0.567-1.383-1.2-2.25c-0.7-0.967-1.15-1.75-1.35-2.35c-0.367,0.6-0.883,1.467-1.55,2.6  C17.338,71.478,16.805,72.228,16.305,72.761z M22.105,72.562c-0.167,0.699-0.617,1.434-1.35,2.199  c-1.167,1.234-1.767,1.884-1.8,1.95c-1.534,1.934-2.75,3.817-3.65,5.65c-0.2,0.533-0.2,1.2,0,2c0.267,0.767,0.6,1.233,1,1.399  c0.567,0.2,1.017,0.101,1.35-0.3c0.3-0.566,0.55-0.983,0.75-1.25l5.75-7.5c0.399-0.6,0.833-0.683,1.3-0.25  c-0.533,0.9-1.684,2.417-3.45,4.55c-1.667,1.9-2.833,3.551-3.5,4.95l5.5-0.55c0.5,0,0.833-0.166,1-0.5  c0.533-1.066,1.4-2.367,2.6-3.9c1.667-2.133,2.634-3.383,2.9-3.75c-1.934-0.899-3.35-1.6-4.25-2.1c-1.533-0.867-2.767-1.75-3.7-2.65  C22.488,72.444,22.338,72.461,22.105,72.562z M29.155,85.161c1.199-0.133,2.116-0.117,2.75,0.05c0.333,0.067,0.683-0.083,1.05-0.45  l4.45-5.399c-3-1.067-4.733-1.567-5.2-1.5c-0.634,0.134-1.967,1.433-4,3.899c-0.267,0.334-0.7,0.816-1.3,1.45  c-0.5,0.634-0.717,1.3-0.65,2C26.889,85.278,27.854,85.261,29.155,85.161z M42.205,79.661c-0.533-0.033-1.3-0.084-2.3-0.15  c-0.567-0.066-1,0.101-1.301,0.5c-0.5,0.533-1.283,1.301-2.35,2.301c-0.9,0.899-1.6,1.717-2.1,2.449  c2.866,0.768,4.933,0.834,6.199,0.2c1.167-0.533,2.634-2.134,4.4-4.8C44.055,79.861,43.205,79.694,42.205,79.661z"></path></svg>