<svg height='30px' width='30px'  fill="#000000" xmlns="http://www.w3.org/2000/svg" xmlns:xlink="http://www.w3.org/1999/xlink" xml:space="preserve" version="1.1" style="shape-rendering:geometricPrecision;text-rendering:geometricPrecision;image-rendering:optimizeQuality;" viewBox="0 0 300 278" x="0px" y="0px" fill-rule="evenodd" clip-rule="evenodd"><defs><style type="text/css">
   
    .fil0 {fill:#000000}
   
  </style></defs><g><path class="fil0" d="M104 188c-3,4 -47,35 -54,40 -12,10 -27,21 -38,32 -3,3 -11,8 -12,13 3,11 10,3 14,0 4,-4 8,-8 13,-12 9,-8 18,-15 28,-23 8,-7 53,-39 57,-42 10,4 12,11 35,18 16,5 29,6 47,5 30,-2 60,-8 78,-31 19,-23 25,-43 28,-79 1,-16 -5,-33 -10,-45 -8,-22 -33,-48 -52,-55 -8,-3 -14,-4 -23,-4 -6,-1 -3,-2 -10,-4 -35,-6 -73,7 -93,27 -37,36 -42,103 -19,144 3,6 9,12 11,16zm92 -177c-27,0 -56,4 -75,24 -17,17 -28,38 -30,69 -3,33 5,59 22,77 27,29 74,33 115,22 28,-8 39,-20 52,-48 5,-12 7,-26 8,-41 2,-27 -7,-55 -25,-72 -14,-14 -26,-26 -48,-26 -10,0 -16,4 -19,-5z"></path><path class="fil0" d="M242 79c-2,2 -2,1 -2,5 -1,3 -1,6 -1,8 0,15 -4,29 -11,41 -9,16 -23,23 -24,26 -3,6 2,9 7,7 5,-3 15,-13 18,-16 6,-6 9,-13 13,-21 7,-16 15,-60 0,-50z"></path></g></svg>